<svg width="205" height="74" viewBox="0 0 205 74" fill="none" xmlns="http://www.w3.org/2000/svg">
<g clip-path="url(#clip0_793_113)">
<path d="M51.3529 6.01968C53.1183 6.01968 54.541 4.67658 54.541 3.00984C54.541 1.3431 53.1183 0 51.3529 0C49.5874 0 48.1647 1.3431 48.1647 3.00984C48.1647 4.67658 49.5874 6.01968 51.3529 6.01968Z" fill="#C5D200"/>
<path d="M88.5477 19.0138C85.9766 19.0138 83.7483 19.8876 81.9314 21.6029C80.1145 23.3182 79.189 25.4218 79.189 27.8491C79.189 30.2764 80.1145 32.3801 81.9314 34.0953C83.7483 35.8106 85.9766 36.6844 88.5477 36.6844H96.158C97.2379 36.6844 98.2492 36.4255 99.1576 35.9239L111.105 29.4026V36.6844H115.99V18.9976H88.5305L88.5477 19.0138ZM111.122 24.726C111.122 25.3247 111.019 25.8911 110.83 26.4251C110.642 26.9591 110.35 27.4446 109.973 27.8653C109.596 28.286 109.116 28.642 108.551 28.9333L103.991 31.4253C103.203 31.8622 102.346 32.0888 101.42 32.0888H88.5648C87.3478 32.0888 86.3023 31.6842 85.411 30.8428C84.5197 30.0013 84.0911 29.0304 84.0911 27.8653C84.0911 27.3151 84.2111 26.7487 84.4511 26.2309C84.6911 25.6969 85.0167 25.2438 85.411 24.8554C85.8052 24.4671 86.2851 24.1758 86.8336 23.9654C87.3821 23.7551 87.9649 23.6418 88.5477 23.6418H111.122V24.726Z" fill="#C5D200"/>
<path d="M146.157 35.9239L155.79 30.6486V27.0238H123.943C124.114 26.15 124.56 25.4057 125.314 24.7584C126.188 23.9978 127.165 23.6418 128.331 23.6418H155.79V19.03H128.331C125.76 19.03 123.531 19.9038 121.714 21.6191C119.898 23.3344 118.972 25.438 118.972 27.8653V28.6582H150.905V31.4577C150.133 31.8784 149.293 32.0726 148.385 32.0726H118.955V36.6845H143.14C144.186 36.6845 145.197 36.4256 146.14 35.9239H146.157Z" fill="#C5D200"/>
<path d="M170.65 32.6228C171.439 32.2021 172.296 31.9917 173.239 31.9917H186.094C187.345 31.9917 188.374 32.3962 189.265 33.2215C190.156 34.0468 190.568 35.0339 190.568 36.2799V36.6845H195.024L195.453 36.6197V36.2152C195.453 33.7879 194.527 31.6842 192.71 29.9689C190.893 28.2537 188.665 27.3798 186.094 27.3798H178.484C177.438 27.3798 176.444 27.6226 175.518 28.108L163.537 34.6617C163.554 34.1115 163.606 33.6584 163.657 33.2701C163.709 32.8655 163.829 32.4286 164 31.9593C164.154 31.5224 164.411 31.134 164.737 30.778C165.08 30.422 165.543 30.0822 166.091 29.7748L176.204 24.2891C176.992 23.8522 177.849 23.6256 178.775 23.6256H195.453V19.0138H184.02C182.974 19.0138 181.963 19.2727 181.02 19.7743L166.434 27.7197L164.411 28.8524L163.537 29.3055V10.9552H158.652V36.6845H163.229L170.668 32.6066L170.65 32.6228Z" fill="#C5D200"/>
<path d="M107.591 46.5231H100.015C98.9348 46.5231 97.9235 46.782 97.0151 47.2836L85.0167 53.8049V38.4645H80.1317V64.1937H85.0167V58.4492C85.0167 57.5753 85.2396 56.7662 85.6852 56.038C86.1309 55.3099 86.7822 54.6949 87.5878 54.2419L92.1643 51.7822C92.9528 51.3453 93.8098 51.1187 94.7354 51.1187H107.591C108.842 51.1187 109.87 51.5233 110.762 52.3486C111.636 53.1738 112.064 54.1609 112.064 55.3422V64.1776H116.949V55.3422C116.949 52.9149 116.024 50.8113 114.207 49.096C112.39 47.3807 110.162 46.5069 107.591 46.5069V46.5231Z" fill="#C5D200"/>
<path d="M128.554 46.5231C125.982 46.5231 123.754 47.3969 121.937 49.1122C120.12 50.8275 119.195 52.9311 119.195 55.3584C119.195 57.7857 120.12 59.8893 121.937 61.6046C123.754 63.3199 125.982 64.1937 128.554 64.1937H136.164C137.244 64.1937 138.255 63.9348 139.163 63.4332L151.11 56.9119V64.1937H155.995V46.5069H128.536L128.554 46.5231ZM151.128 52.2353C151.128 52.834 151.025 53.4004 150.836 53.9344C150.648 54.4684 150.356 54.9539 149.979 55.3746C149.602 55.7953 149.122 56.1513 148.556 56.4426L143.997 58.9346C143.209 59.3715 142.352 59.5981 141.426 59.5981H128.571C127.354 59.5981 126.308 59.1935 125.417 58.3521C124.526 57.5106 124.097 56.5397 124.097 55.3746C124.097 54.8244 124.217 54.258 124.457 53.7402C124.697 53.2062 125.023 52.7531 125.417 52.3647C125.811 51.9764 126.291 51.6851 126.839 51.4747C127.388 51.2644 127.971 51.1511 128.554 51.1511H151.128V52.2353Z" fill="#C5D200"/>
<path d="M164.531 46.5231H159.646V64.2099H164.531V46.5231Z" fill="#C5D200"/>
<path d="M202.258 49.1122C200.441 47.3969 198.212 46.5231 195.641 46.5231H188.065C186.985 46.5231 185.974 46.782 185.066 47.2836L173.067 53.8049V46.5231H168.182V64.2099H173.067V58.4653C173.067 57.5915 173.29 56.7824 173.753 56.0542C174.199 55.326 174.85 54.7111 175.656 54.258L180.232 51.7984C181.02 51.3615 181.878 51.1349 182.803 51.1349H195.658C196.91 51.1349 197.938 51.5395 198.829 52.3648C199.704 53.19 200.132 54.1771 200.132 55.3584V64.1937H205.017V55.3584C205.017 52.9311 204.092 50.8275 202.275 49.1122H202.258Z" fill="#C5D200"/>
<path d="M162.097 44.6136C163.858 44.6136 165.286 43.266 165.286 41.6038C165.286 39.9415 163.858 38.5939 162.097 38.5939C160.337 38.5939 158.909 39.9415 158.909 41.6038C158.909 43.266 160.337 44.6136 162.097 44.6136Z" fill="#C5D200"/>
<path d="M4.59363 25.0496C4.59363 25.0496 4.6106 24.9849 4.62757 24.9525C4.62757 24.9849 4.6106 25.0173 4.59363 25.0496Z" fill="black"/>
<path d="M4.14801 26.0367C4.14801 26.0367 4.18196 25.972 4.19893 25.9397C4.19893 25.972 4.16498 26.0044 4.14801 26.0367Z" fill="black"/>
<path d="M51.0957 71.5727C51.0957 71.5727 51.2328 71.508 51.3014 71.4756C51.2328 71.508 51.1643 71.5403 51.0957 71.5727Z" fill="#C5D200"/>
<path d="M52.6727 70.7636C52.6727 70.7636 52.7749 70.7151 52.809 70.6827C52.7579 70.7151 52.7068 70.7313 52.6727 70.7636Z" fill="#C5D200"/>
<path d="M49.3474 72.3171C49.3474 72.3171 49.5188 72.2524 49.6045 72.22C49.5188 72.2524 49.4331 72.2847 49.3474 72.3171Z" fill="#C5D200"/>
<path d="M54.1296 69.8736C54.1296 69.8736 54.1635 69.8574 54.1635 69.8412C54.1635 69.8412 54.1296 69.8574 54.1296 69.8736Z" fill="#C5D200"/>
<path d="M45.2166 73.5469C45.2166 73.5469 45.3537 73.5145 45.4222 73.4984C45.3537 73.4984 45.2851 73.5307 45.2166 73.5469Z" fill="#C5D200"/>
<path d="M60.163 65.5854C60.4887 65.4236 60.7972 65.3103 61.1058 65.2294C60.7972 65.3103 60.4887 65.4398 60.163 65.5854Z" fill="#C5D200"/>
<path d="M61.1572 65.2132C61.4657 65.1323 61.7571 65.0838 62.0313 65.0838C61.7571 65.0838 61.4486 65.1323 61.1572 65.2132Z" fill="#C5D200"/>
<path d="M42.8512 74C43.6911 73.8544 44.4795 73.7087 45.2166 73.5469C44.4795 73.7087 43.6911 73.8705 42.8512 74Z" fill="#C5D200"/>
<path d="M51.3185 71.4756C51.7985 71.2491 52.2441 71.0063 52.6898 70.7636C52.2613 71.0063 51.7985 71.2491 51.3185 71.4756Z" fill="#C5D200"/>
<path d="M49.6045 72.22C50.1358 72.0096 50.6329 71.7993 51.0957 71.5727C50.6158 71.7993 50.1187 72.0096 49.6045 72.22Z" fill="#C5D200"/>
<path d="M52.8269 70.6665C53.2726 70.4076 53.7182 70.1325 54.1296 69.8574C53.7011 70.1325 53.2726 70.4076 52.8269 70.6665Z" fill="#C5D200"/>
<path d="M50.77 18.9814C48.4389 17.4603 46.1421 16.3761 43.8967 15.745C41.6513 15.0977 39.1145 14.7741 36.3035 14.7741C32.2069 14.7741 28.316 15.7288 24.6651 17.6221C21.0142 19.5154 18.3403 22.3311 16.6434 26.0529C19.0602 25.3733 21.8712 25.0982 25.0765 25.26C25.3164 25.0335 25.5221 24.8231 25.6764 24.6289C25.8307 24.4347 26.0363 24.2729 26.2763 24.1111C27.6476 22.8165 29.3445 21.9265 31.4013 21.4411C33.4582 20.9556 35.7207 20.8909 38.2061 21.2631H38.3261C41.5485 21.878 44.3595 23.0916 46.7592 24.904L59.186 34.241L63.8825 28.5449L50.7358 18.9814H50.77Z" fill="#C5D200"/>
<path d="M61.38 44.3709C62.1856 42.9307 62.6655 41.5714 62.8198 40.2768H55.8265V48.0118H58.8432C59.7345 47.0247 60.5744 45.8111 61.38 44.3709Z" fill="#C5D200"/>
<path d="M57.6262 67.3007C57.3349 67.5272 57.0435 67.7376 56.7692 67.9641C57.0606 67.7538 57.3349 67.5272 57.6262 67.3007Z" fill="#C5D200"/>
<path d="M58.6547 66.5239C58.9289 66.3298 59.186 66.1517 59.4431 65.9899C59.186 66.1517 58.9289 66.3136 58.6547 66.5239Z" fill="#C5D200"/>
<path d="M63.2826 65.4236C62.9226 65.197 62.5113 65.0838 62.0485 65.0838C61.7742 65.0838 61.4828 65.1323 61.1743 65.2132C61.1743 65.2132 61.14 65.2132 61.1229 65.2132C60.8144 65.2941 60.5058 65.4236 60.1802 65.5692C59.9402 65.6825 59.7002 65.8119 59.4603 65.9576C59.2032 66.1194 58.9461 66.2812 58.6718 66.4916L57.6434 67.2845C57.352 67.511 57.0606 67.7214 56.7864 67.948C55.9293 68.6114 55.0723 69.2263 54.181 69.8251C54.181 69.8251 54.1467 69.8412 54.1467 69.8574C53.7182 70.1325 53.2897 70.4076 52.844 70.6665C52.7926 70.6989 52.7412 70.7151 52.7069 70.7474C52.2784 70.9902 51.8156 71.2329 51.3357 71.4594C51.2671 71.4918 51.1986 71.5242 51.13 71.5565C50.6501 71.7831 50.153 71.9934 49.6388 72.2038C49.5531 72.2362 49.4674 72.2685 49.3817 72.3009C48.8503 72.5113 48.2847 72.7054 47.6848 72.8834C47.5991 72.9158 47.5134 72.932 47.4277 72.9644C46.8106 73.1424 46.1593 73.3204 45.4565 73.4822C45.3879 73.4822 45.3194 73.5145 45.2508 73.5307C44.5138 73.6925 43.7253 73.8544 42.8854 73.9838C45.2851 73.9029 47.6676 73.7411 49.3474 73.4174C52.3813 72.8511 54.4895 71.7669 56.3407 70.8283C58.0376 69.9707 59.4603 69.1778 61.1058 69.2425C62.6313 69.2425 63.7454 68.6761 64.0882 67.6567C64.3624 66.8152 64.0539 65.8929 63.3169 65.4236H63.2826Z" fill="#C5D200"/>
<path d="M63.4195 41.7979C63.2652 42.2996 63.0938 42.8012 62.9396 43.3352C62.3739 44.6945 61.5855 46.0538 60.5913 47.3807C59.58 48.7076 58.4488 49.8889 57.1632 50.9084C55.8777 51.9278 54.4722 52.7531 52.9467 53.3519C51.4212 53.9668 49.81 54.258 48.1302 54.258C46.759 54.258 45.3192 54.0639 43.7937 53.6917C42.2682 53.3195 40.8112 52.6237 39.4571 51.6366C36.1662 49.2093 33.1323 46.3289 30.3555 42.9792C27.5788 39.6457 25.5905 36.0695 24.3907 32.283C23.825 30.6162 23.6708 29.0951 23.9107 27.7358C23.9107 27.3637 24.1507 26.8297 24.6306 26.15C23.1908 26.15 21.751 26.2147 20.3455 26.328C18.94 26.4413 17.5516 26.684 16.1804 27.0724C15.7004 27.218 15.2891 27.3475 14.9805 27.4122C12.8894 28.0918 11.0211 28.9333 9.37561 29.9204C7.73013 30.9075 6.27319 31.927 5.03907 32.995C3.78782 34.063 2.75939 35.0986 1.97093 36.1181C1.16533 37.1375 0.531131 37.9952 0.0340576 38.6748V40.0341C0.0340576 44.6621 0.976783 49.0313 2.86224 53.1253C4.74769 57.2193 7.3359 60.7955 10.644 63.8216C13.9521 66.8476 17.7916 69.2749 22.2138 71.0549C26.6361 72.8349 31.384 73.7249 36.4404 73.7249C37.4688 73.7249 38.4801 73.6925 39.4914 73.6116C49.4329 72.576 52.9124 69.906 57.129 66.6696L58.1574 65.8767C59.5972 64.7763 60.7799 64.3879 61.7055 64.307C64.0023 62.3166 66.0077 60.0512 67.6875 57.5106C69.6244 54.5979 71.0299 51.4262 71.904 48.0118H73.7209V40.2768H63.8309C63.7452 40.8108 63.6252 41.3287 63.4709 41.8141L63.4195 41.7979Z" fill="#C5D200"/>
<path d="M50.273 44.824L58.5861 34.9206L46.0393 25.5836C43.5539 23.836 40.8971 22.7356 38.0861 22.2825V22.1693C37.5205 22.0883 37.0063 22.0398 36.5263 21.9913C36.0464 21.9427 35.515 21.9265 34.9665 21.9265C31.6756 21.9265 29.0188 22.8813 27.0134 24.7746C26.7734 24.9202 26.5677 25.1144 26.4135 25.3409C28.7446 25.5675 30.8014 26.2309 32.5669 27.3313C34.3323 28.4317 36.0293 29.7424 37.6233 31.2635L35.5665 33.7717L50.273 44.8078V44.824Z" fill="#C5D200"/>
<path d="M3.68518 26.8944C3.83944 26.6193 4.01085 26.328 4.16511 26.0367C4.01085 26.328 3.85659 26.6193 3.68518 26.8944Z" fill="black"/>
<path d="M4.62793 24.9687C4.74791 24.6613 4.83362 24.37 4.88504 24.0787C4.83362 24.37 4.73077 24.6775 4.62793 24.9687Z" fill="black"/>
<path d="M7.23331 20.3569C6.90764 18.7872 5.6221 17.8325 4.8165 17.6545C4.69652 17.6221 4.57653 17.6221 4.43941 17.6221C3.47954 17.6221 2.38255 18.318 2.07403 19.208C1.74836 20.1465 2.39969 21.0042 3.9252 21.6514C4.43941 21.8618 4.78222 22.2502 4.91934 22.7518C4.95362 22.8813 4.97077 23.0107 4.98791 23.1402C5.00505 23.4153 4.98791 23.7065 4.91934 23.9978C4.91934 24.014 4.91934 24.0464 4.91934 24.0625C4.85078 24.3538 4.76508 24.6613 4.66224 24.9525C4.66224 24.9849 4.6451 25.0173 4.62796 25.0496C4.50797 25.3409 4.38799 25.6484 4.23373 25.9396C4.23373 25.972 4.19944 26.0044 4.1823 26.0367C4.02804 26.328 3.87378 26.6193 3.70237 26.8944C7.30187 23.9169 7.50756 21.5705 7.25045 20.3569H7.23331Z" fill="#C5D200"/>
<path d="M6.80477 30.3735C9.10159 28.6259 11.964 27.2666 15.4264 26.2795C16.232 24.2244 17.3633 22.4282 18.8031 20.8747C20.2429 19.3212 21.8884 18.0105 23.7395 16.9425C25.5907 15.8745 27.579 15.0816 29.7044 14.5476C31.8299 14.0136 33.9896 13.7547 36.1493 13.7547C38.7203 13.7547 41.4285 14.1592 44.291 14.9521C47.1363 15.745 49.536 16.9101 51.4728 18.4312L64.4996 27.8815L72.4528 18.5445L57.6263 7.39515L54.7295 11.0361C52.0042 9.59589 49.1074 8.47934 46.0564 7.67024C43.0054 6.87733 39.783 6.47278 36.4064 6.47278C31.6584 6.47278 27.2019 7.24951 23.0196 8.80298C18.8374 10.3564 15.1179 12.5086 11.8612 15.2272C10.3528 16.4894 8.99875 17.8649 7.76463 19.3212C7.88462 19.5963 8.0046 19.8876 8.05602 20.1951C8.46739 22.1531 7.78177 25.2924 2.19398 28.998L1.93687 29.176C1.02843 31.5871 0.394232 34.0953 0.102844 36.733C2.27968 34.2248 4.50794 32.105 6.78763 30.3573L6.80477 30.3735Z" fill="#C5D200"/>
</g>
<defs>
<clipPath id="clip0_793_113">
<rect width="205" height="74" fill="white"/>
</clipPath>
</defs>
</svg>
