<svg width="18" height="18" viewBox="0 0 18 18" fill="none" xmlns="http://www.w3.org/2000/svg">
<path fill-rule="evenodd" clip-rule="evenodd" d="M9.00081 0.196777C6.68327 0.196777 6.39243 0.206911 5.48219 0.248333C4.57374 0.289934 3.95364 0.433758 3.41106 0.644782C2.84981 0.86274 2.37372 1.1543 1.8994 1.62879C1.42473 2.10311 1.13317 2.5792 0.914502 3.14027C0.702944 3.68304 0.558942 4.30331 0.518053 5.21141C0.477342 6.12164 0.466675 6.41266 0.466675 8.7302C0.466675 11.0477 0.476986 11.3377 0.518231 12.2479C0.560009 13.1564 0.703833 13.7765 0.914679 14.3191C1.13282 14.8803 1.42437 15.3564 1.89887 15.8307C2.37301 16.3054 2.8491 16.5977 3.40999 16.8156C3.95293 17.0266 4.57321 17.1705 5.48148 17.2121C6.39171 17.2535 6.68238 17.2636 8.99974 17.2636C11.3175 17.2636 11.6074 17.2535 12.5176 17.2121C13.4261 17.1705 14.0469 17.0266 14.5898 16.8156C15.1509 16.5977 15.6263 16.3054 16.1004 15.8307C16.5751 15.3564 16.8667 14.8803 17.0853 14.3192C17.2951 13.7765 17.4391 13.1562 17.4818 12.2481C17.5227 11.3379 17.5333 11.0477 17.5333 8.7302C17.5333 6.41266 17.5227 6.12182 17.4818 5.21158C17.4391 4.30313 17.2951 3.68304 17.0853 3.14045C16.8667 2.5792 16.5751 2.10311 16.1004 1.62879C15.6258 1.15412 15.1511 0.862562 14.5893 0.644782C14.0453 0.433758 13.4249 0.289934 12.5164 0.248333C11.6062 0.206911 11.3164 0.196777 8.99814 0.196777H9.00081ZM8.23525 1.73455C8.46245 1.73419 8.71597 1.73455 9.00077 1.73455C11.2792 1.73455 11.5492 1.74273 12.449 1.78361C13.281 1.82166 13.7326 1.96068 14.0334 2.07748C14.4316 2.23215 14.7155 2.41704 15.014 2.71571C15.3127 3.01438 15.4976 3.29883 15.6526 3.69706C15.7694 3.9975 15.9086 4.44906 15.9464 5.28107C15.9873 6.18064 15.9962 6.45086 15.9962 8.72822C15.9962 11.0056 15.9873 11.2758 15.9464 12.1754C15.9084 13.0074 15.7694 13.4589 15.6526 13.7594C15.4979 14.1576 15.3127 14.4412 15.014 14.7397C14.7153 15.0383 14.4318 15.2232 14.0334 15.3779C13.7329 15.4952 13.281 15.6339 12.449 15.6719C11.5494 15.7128 11.2792 15.7217 9.00077 15.7217C6.72217 15.7217 6.45212 15.7128 5.55256 15.6719C4.72055 15.6335 4.26899 15.4945 3.96801 15.3777C3.56978 15.223 3.28533 15.0382 2.98666 14.7395C2.68799 14.4408 2.5031 14.1571 2.34808 13.7587C2.23128 13.4582 2.09208 13.0067 2.05421 12.1747C2.01332 11.2751 2.00514 11.0049 2.00514 8.72609C2.00514 6.44731 2.01332 6.1785 2.05421 5.27894C2.09226 4.44693 2.23128 3.99537 2.34808 3.69457C2.50275 3.29634 2.68799 3.01189 2.98666 2.71322C3.28533 2.41455 3.56978 2.22966 3.96801 2.07464C4.26881 1.9573 4.72055 1.81864 5.55256 1.78041C6.33977 1.74486 6.64484 1.73419 8.23525 1.73241V1.73455ZM13.5558 3.15145C12.9905 3.15145 12.5318 3.60959 12.5318 4.17511C12.5318 4.74045 12.9905 5.19912 13.5558 5.19912C14.1212 5.19912 14.5799 4.74045 14.5799 4.17511C14.5799 3.60977 14.1212 3.15145 13.5558 3.15145ZM9.00082 4.34791C6.58071 4.34791 4.61855 6.31006 4.61855 8.73018C4.61855 11.1503 6.58071 13.1116 9.00082 13.1116C11.4209 13.1116 13.3824 11.1503 13.3824 8.73018C13.3824 6.31006 11.4209 4.34791 9.00082 4.34791ZM9.00079 5.8857C10.5717 5.8857 11.8453 7.15914 11.8453 8.73018C11.8453 10.301 10.5717 11.5746 9.00079 11.5746C7.42975 11.5746 6.15632 10.301 6.15632 8.73018C6.15632 7.15914 7.42975 5.8857 9.00079 5.8857Z" fill="#C8C8C8"/>
</svg>
