<svg width="18" height="17" viewBox="0 0 18 17" fill="none" xmlns="http://www.w3.org/2000/svg">
<path d="M4.54585 2.61178C4.52232 1.54358 3.75844 0.72998 2.51803 0.72998C1.27761 0.72998 0.466675 1.54358 0.466675 2.61178C0.466675 3.65785 1.25365 4.49488 2.47096 4.49488H2.49413C3.75844 4.49488 4.54585 3.65785 4.54585 2.61178Z" fill="#C8C8C8"/>
<path d="M4.30704 5.98193H0.681091V16.8764H4.30704V5.98193Z" fill="#C8C8C8"/>
<path d="M13.2088 5.72607C15.5948 5.72607 17.3836 7.2835 17.3836 10.6298L17.3835 16.8764H13.7577V11.0478C13.7577 9.58382 13.233 8.58482 11.9204 8.58482C10.9186 8.58482 10.3219 9.25829 10.0599 9.90876C9.964 10.1419 9.94047 10.4667 9.94047 10.7923V16.8767H6.31409C6.31409 16.8767 6.36188 7.00447 6.31409 5.98219H9.94047V7.5253C10.4217 6.7835 11.2836 5.72607 13.2088 5.72607Z" fill="#C8C8C8"/>
</svg>
