<svg width="16" height="14" viewBox="0 0 16 14" fill="none" xmlns="http://www.w3.org/2000/svg">
<path fill-rule="evenodd" clip-rule="evenodd" d="M7.5208 3.73508L7.55438 4.28871L6.99479 4.22092C4.95791 3.96105 3.17843 3.07975 1.66756 1.59963L0.928908 0.86521L0.73865 1.40755C0.33575 2.61651 0.593158 3.89326 1.43253 4.75196C1.8802 5.22651 1.77948 5.2943 1.00725 5.01183C0.73865 4.92144 0.503625 4.85365 0.481242 4.88755C0.4029 4.96664 0.6715 5.99482 0.884142 6.40157C1.17513 6.96651 1.76828 7.52014 2.4174 7.8478L2.96579 8.10767L2.31668 8.11897C1.68994 8.11897 1.66756 8.13027 1.73471 8.36754C1.95854 9.10196 2.84268 9.88157 3.82755 10.2205L4.52143 10.4578L3.91708 10.8194C3.02175 11.3391 1.96973 11.6329 0.917717 11.6555C0.414092 11.6668 0 11.712 0 11.7459C0 11.8588 1.36538 12.4916 2.15999 12.7401C4.54382 13.4746 7.37531 13.1582 9.50173 11.904C11.0126 11.0114 12.5235 9.23754 13.2286 7.52014C13.6091 6.60495 13.9896 4.93274 13.9896 4.13053C13.9896 3.61079 14.0232 3.543 14.6499 2.92157C15.0192 2.56001 15.3662 2.16456 15.4333 2.05157C15.5452 1.8369 15.534 1.8369 14.9633 2.02898C14.012 2.36794 13.8777 2.32274 14.3477 1.8143C14.6947 1.45274 15.1088 0.797418 15.1088 0.60534C15.1088 0.571444 14.9409 0.627937 14.7506 0.729625C14.5492 0.842612 14.1015 1.01209 13.7658 1.11378L13.1614 1.30586L12.613 0.933002C12.3108 0.729625 11.8856 0.503652 11.6617 0.435859C11.0909 0.277678 10.218 0.300275 9.70318 0.481054C8.30422 0.989496 7.42008 2.30014 7.5208 3.73508Z" fill="#C8C8C8"/>
</svg>
