<svg width="18" height="14" viewBox="0 0 18 14" fill="none" xmlns="http://www.w3.org/2000/svg">
<path fill-rule="evenodd" clip-rule="evenodd" d="M15.6677 1.2295C16.4021 1.43101 16.9804 2.02476 17.1767 2.77876C17.5333 4.14531 17.5333 6.99661 17.5333 6.99661C17.5333 6.99661 17.5333 9.84782 17.1767 11.2145C16.9804 11.9685 16.4021 12.5622 15.6677 12.7638C14.3369 13.1299 9.00001 13.1299 9.00001 13.1299C9.00001 13.1299 3.66309 13.1299 2.33218 12.7638C1.59783 12.5622 1.0195 11.9685 0.823232 11.2145C0.466675 9.84782 0.466675 6.99661 0.466675 6.99661C0.466675 6.99661 0.466675 4.14531 0.823232 2.77876C1.0195 2.02476 1.59783 1.43101 2.33218 1.2295C3.66309 0.863281 9.00001 0.863281 9.00001 0.863281C9.00001 0.863281 14.3369 0.863281 15.6677 1.2295ZM7.40002 4.59656V9.92989L11.6667 7.26333L7.40002 4.59656Z" fill="#C8C8C8"/>
</svg>
